<svg width="18" height="18" viewBox="0 0 18 18" fill="none" xmlns="http://www.w3.org/2000/svg" class="icon"><path fill-rule="evenodd" clip-rule="evenodd" d="M4 0C3.44772 0 3 0.447715 3 1V2.5H1C0.447715 2.5 0 2.94771 0 3.5C0 4.05228 0.447715 4.5 1 4.5H3V14C3 14.5523 3.44772 15 4 15C4.00047 15 4.00093 15 4.0014 15L13 15V17C13 17.5523 13.4477 18 14 18C14.5523 18 15 17.5523 15 17V15H17C17.5523 15 18 14.5523 18 14C18 13.4477 17.5523 13 17 13H15V4C15 3.91367 14.9891 3.8299 14.9685 3.75C14.9891 3.67009 15 3.58632 15 3.5C15 2.94772 14.5523 2.5 14 2.5L5 2.5V1C5 0.447715 4.55228 0 4 0ZM13 13V4.5L5 4.5V13L13 13Z" fill="#261F23"></path></svg>