<svg width="28" height="28" viewBox="7 3 14 19" fill="none" xmlns="http://www.w3.org/2000/svg" class="icon"><path fill-rule="evenodd" clip-rule="evenodd" d="M18.9998 7.99978L8.99976 7.99978L8.99976 19.9998L18.9998 19.9998L18.9998 7.99978ZM20.3509 21.3509C20.2087 21.73 19.843 21.9998 19.4143 21.9998H8.41431C7.94704 21.9998 7.55463 21.6793 7.44489 21.2462C7.17651 21.0668 6.99976 20.7611 6.99976 20.4141L6.99976 7.41409C6.99976 7.03119 7.21496 6.69855 7.53102 6.53053C7.69913 6.21476 8.03161 5.99979 8.41431 5.99979L10.4143 5.99978L10.4143 4.00083L10.4143 4.00003L10.4143 3.99978L10.4143 3.99667C10.416 3.44582 10.8631 2.99978 11.4143 2.99978L11.4366 3.00003L16.392 3.00003L16.4143 2.99979C16.9666 2.99979 17.4143 3.4475 17.4143 3.99979L17.4143 4.00003L17.4143 5.99978L19.4143 5.99978C19.7613 5.99978 20.0671 6.17656 20.2464 6.44499C20.6794 6.55483 20.9998 6.94718 20.9998 7.41434L20.9998 20.4143C20.9998 20.8431 20.73 21.2088 20.3509 21.3509ZM15.4143 5.99979L12.4143 5.99978V5.00003L15.4143 5.00003V5.99979ZM10.9998 10.4143C10.9998 9.86205 11.4475 9.41434 11.9998 9.41434C12.552 9.41434 12.9998 9.86205 12.9998 10.4143L12.9998 17.4143C12.9998 17.9666 12.552 18.4143 11.9998 18.4143C11.4475 18.4143 10.9998 17.9666 10.9998 17.4143V10.4143ZM15.9998 9.41434C15.4475 9.41434 14.9998 9.86205 14.9998 10.4143L14.9998 17.4143C14.9998 17.9666 15.4475 18.4143 15.9998 18.4143C16.552 18.4143 16.9998 17.9666 16.9998 17.4143L16.9998 10.4143C16.9998 9.86205 16.552 9.41434 15.9998 9.41434Z" fill="#261F23"></path></svg>